<?xml version="1.0" encoding="utf-8"?>
<!-- Generator: Adobe Illustrator 26.3.1, SVG Export Plug-In . SVG Version: 6.00 Build 0)  -->
<svg version="1.1" id="Livello_1" xmlns="http://www.w3.org/2000/svg" xmlns:xlink="http://www.w3.org/1999/xlink" x="0px" y="0px"
	 viewBox="0 0 176.19 148.43" style="enable-background:new 0 0 176.19 148.43;" xml:space="preserve">
<style type="text/css">
	.st0{fill:#FFFFFF;}
</style>
<path d="M15.82,118.68V9.61h64.11L67.11,29.78H36.47v22.64h33.86l-12.89,20.1H36.47v46.17H15.82z"/>
<path d="M39.74,118.68l57.5-89.05H71.8L84.07,9.61h43.96L70.97,97.39h54.06l-13.51,21.29H39.74z"/>
<polygon points="170.08,139.33 6.14,139.33 6.14,122.63 113.96,122.63 129.02,99.39 "/>
<g>
	<path class="st0" d="M23.54,136.22h-2.41l-0.36-1.82h-1.93l-0.35,1.82h-2.41l2.54-9.81h2.41L23.54,136.22z M20.37,132.5l-0.06-0.32
		c-0.22-1.29-0.43-2.35-0.53-3.25c-0.08,0.9-0.28,1.96-0.52,3.26l-0.06,0.31H20.37z"/>
	<path class="st0" d="M32.22,132.79c0,2.48-1.29,3.59-3.38,3.59c-2.03,0-3.33-1.12-3.33-3.53v-6.43h2.37v6.5
		c0,0.94,0.31,1.43,1.01,1.43c0.69,0,0.97-0.49,0.97-1.43v-6.5h2.37V132.79z"/>
	<path class="st0" d="M40.92,128.46h-1.99v7.76H36.6v-7.76h-1.99v-2.04h6.32V128.46z"/>
	<path class="st0" d="M49.63,131.31c0,3.46-1.32,5.07-3.53,5.07c-2.2,0-3.49-1.58-3.49-5.04s1.32-5.07,3.52-5.07
		S49.63,127.86,49.63,131.31z M47.22,131.33c0-2.37-0.38-3.05-1.11-3.05c-0.74,0-1.09,0.66-1.09,3.03s0.38,3.05,1.11,3.05
		S47.22,133.7,47.22,131.33z"/>
	<path class="st0" d="M57.63,128.46h-1.99v7.76H53.3v-7.76h-1.99v-2.04h6.32V128.46z"/>
	<path class="st0" d="M66.62,136.22h-2.49l-1.15-3.75h-0.63v3.75h-2.3v-9.81h3.39c1.76,0,3.04,0.8,3.04,2.98
		c0,1.27-0.49,2.1-1.29,2.58L66.62,136.22z M64.15,129.47c0-0.81-0.24-1.19-0.88-1.19h-0.92v2.4h0.88
		C63.9,130.68,64.15,130.28,64.15,129.47z"/>
	<path class="st0" d="M75.95,136.22h-2.41l-0.36-1.82h-1.93l-0.35,1.82h-2.41l2.54-9.81h2.41L75.95,136.22z M72.78,132.5l-0.06-0.32
		c-0.22-1.29-0.43-2.35-0.53-3.25c-0.08,0.9-0.28,1.96-0.52,3.26l-0.06,0.31H72.78z"/>
	<path class="st0" d="M84.19,133.49c0,1.83-1.36,2.89-3.18,2.89c-1.53,0-2.41-0.63-3.22-1.71l1.6-1.44
		c0.66,0.78,1.19,1.19,1.67,1.19c0.49,0,0.84-0.25,0.84-0.78c0-0.55-0.15-0.88-1.26-1.37c-1.95-0.85-2.66-1.6-2.66-3.14
		c0-1.6,1.16-2.86,3.04-2.86c1.51,0,2.27,0.55,3.08,1.55l-1.62,1.46c-0.67-0.8-0.91-1.05-1.53-1.05c-0.45,0-0.7,0.34-0.7,0.7
		c0,0.52,0.25,0.81,1.25,1.25C83.46,131.04,84.19,131.85,84.19,133.49z"/>
	<path class="st0" d="M93.03,129.47c0,2.33-1.33,3.19-3.21,3.19h-0.84v3.56h-2.3v-9.81h3.31C91.74,126.42,93.03,127.2,93.03,129.47z
		 M90.71,129.53c0-0.87-0.27-1.2-0.92-1.2h-0.8v2.44h0.76C90.41,130.76,90.71,130.41,90.71,129.53z"/>
	<path class="st0" d="M102.14,131.31c0,3.46-1.32,5.07-3.53,5.07c-2.2,0-3.49-1.58-3.49-5.04s1.32-5.07,3.52-5.07
		S102.14,127.86,102.14,131.31z M99.73,131.33c0-2.37-0.38-3.05-1.11-3.05c-0.74,0-1.09,0.66-1.09,3.03s0.38,3.05,1.11,3.05
		S99.73,133.7,99.73,131.33z"/>
	<path class="st0" d="M111.21,136.22h-2.49l-1.15-3.75h-0.63v3.75h-2.3v-9.81h3.39c1.76,0,3.04,0.8,3.04,2.98
		c0,1.27-0.49,2.1-1.29,2.58L111.21,136.22z M108.74,129.47c0-0.81-0.24-1.19-0.88-1.19h-0.92v2.4h0.88
		C108.49,130.68,108.74,130.28,108.74,129.47z"/>
	<path class="st0" d="M119.43,128.46h-1.99v7.76h-2.34v-7.76h-1.99v-2.04h6.32V128.46z"/>
	<path class="st0" d="M124.25,136.22h-2.37v-9.81h2.37V136.22z"/>
</g>
</svg>
